<mxfile host="app.diagrams.net" modified="2022-03-12T11:59:12.855Z" agent="5.0 (Windows NT 10.0; Win64; x64) AppleWebKit/537.36 (KHTML, like Gecko) Chrome/99.0.4844.51 Safari/537.36" etag="qiTNZnKlLkJEjAvq-bZQ" version="17.1.2" type="github">
  <diagram id="EOQqka_rnpedFPc0hPZI" name="Page-1">
    <mxGraphModel dx="1038" dy="539" grid="1" gridSize="10" guides="1" tooltips="1" connect="1" arrows="1" fold="1" page="1" pageScale="1" pageWidth="827" pageHeight="1169" math="0" shadow="0">
      <root>
        <mxCell id="0" />
        <mxCell id="1" parent="0" />
        <mxCell id="8IZqgKLin0F-vWmYTHtC-1" value="&lt;font style=&quot;font-size: 16px&quot;&gt;计算机&lt;br&gt;00&lt;br&gt;&lt;/font&gt;" style="shape=cube;whiteSpace=wrap;html=1;boundedLbl=1;backgroundOutline=1;darkOpacity=0.05;darkOpacity2=0.1;strokeWidth=1;direction=east;" vertex="1" parent="1">
          <mxGeometry x="460" y="280" width="120" height="80" as="geometry" />
        </mxCell>
        <mxCell id="8IZqgKLin0F-vWmYTHtC-2" value="" style="endArrow=none;html=1;rounded=0;fontSize=24;exitX=0;exitY=0;exitDx=120;exitDy=50;exitPerimeter=0;" edge="1" parent="1" source="8IZqgKLin0F-vWmYTHtC-1">
          <mxGeometry width="50" height="50" relative="1" as="geometry">
            <mxPoint x="540" y="340" as="sourcePoint" />
            <mxPoint x="740" y="330" as="targetPoint" />
          </mxGeometry>
        </mxCell>
        <mxCell id="8IZqgKLin0F-vWmYTHtC-4" value="" style="rounded=0;whiteSpace=wrap;html=1;labelBorderColor=default;fontSize=16;strokeWidth=1;" vertex="1" parent="1">
          <mxGeometry x="740" y="280" width="110" height="80" as="geometry" />
        </mxCell>
        <mxCell id="8IZqgKLin0F-vWmYTHtC-5" value="显示器&lt;br&gt;50" style="rounded=0;whiteSpace=wrap;html=1;labelBorderColor=none;fontSize=16;strokeWidth=1;" vertex="1" parent="1">
          <mxGeometry x="750" y="290" width="90" height="60" as="geometry" />
        </mxCell>
        <mxCell id="8IZqgKLin0F-vWmYTHtC-6" value="" style="endArrow=classic;html=1;rounded=0;fontSize=16;" edge="1" parent="1">
          <mxGeometry width="50" height="50" relative="1" as="geometry">
            <mxPoint x="560" y="280" as="sourcePoint" />
            <mxPoint x="560" y="180" as="targetPoint" />
          </mxGeometry>
        </mxCell>
        <mxCell id="8IZqgKLin0F-vWmYTHtC-7" value="" style="endArrow=none;html=1;rounded=0;fontSize=16;entryX=1;entryY=0.5;entryDx=0;entryDy=0;" edge="1" parent="1" source="8IZqgKLin0F-vWmYTHtC-1">
          <mxGeometry width="50" height="50" relative="1" as="geometry">
            <mxPoint x="540" y="340" as="sourcePoint" />
            <mxPoint x="420" y="320" as="targetPoint" />
          </mxGeometry>
        </mxCell>
        <mxCell id="8IZqgKLin0F-vWmYTHtC-8" value="" style="rounded=0;whiteSpace=wrap;html=1;labelBorderColor=none;fontSize=16;strokeWidth=1;" vertex="1" parent="1">
          <mxGeometry x="140" y="240" width="280" height="160" as="geometry" />
        </mxCell>
        <mxCell id="8IZqgKLin0F-vWmYTHtC-9" value="PCB板&lt;br&gt;20" style="text;html=1;strokeColor=none;fillColor=none;align=center;verticalAlign=middle;whiteSpace=wrap;rounded=0;labelBorderColor=none;fontSize=16;" vertex="1" parent="1">
          <mxGeometry x="250" y="250" width="60" height="30" as="geometry" />
        </mxCell>
        <mxCell id="8IZqgKLin0F-vWmYTHtC-10" value="传感器组合&lt;br&gt;201" style="rounded=0;whiteSpace=wrap;html=1;labelBorderColor=none;fontSize=16;strokeWidth=1;" vertex="1" parent="1">
          <mxGeometry x="160" y="290" width="240" height="90" as="geometry" />
        </mxCell>
        <mxCell id="8IZqgKLin0F-vWmYTHtC-11" style="edgeStyle=orthogonalEdgeStyle;rounded=0;orthogonalLoop=1;jettySize=auto;html=1;exitX=0.5;exitY=0;exitDx=0;exitDy=0;entryX=0.497;entryY=1.017;entryDx=0;entryDy=0;entryPerimeter=0;fontSize=16;" edge="1" parent="1" source="8IZqgKLin0F-vWmYTHtC-14" target="8IZqgKLin0F-vWmYTHtC-1">
          <mxGeometry relative="1" as="geometry" />
        </mxCell>
        <mxCell id="8IZqgKLin0F-vWmYTHtC-12" style="edgeStyle=orthogonalEdgeStyle;rounded=0;orthogonalLoop=1;jettySize=auto;html=1;exitX=0;exitY=0.5;exitDx=0;exitDy=0;entryX=0.5;entryY=1;entryDx=0;entryDy=0;fontSize=16;" edge="1" parent="1" source="8IZqgKLin0F-vWmYTHtC-14" target="8IZqgKLin0F-vWmYTHtC-8">
          <mxGeometry relative="1" as="geometry" />
        </mxCell>
        <mxCell id="8IZqgKLin0F-vWmYTHtC-13" style="edgeStyle=orthogonalEdgeStyle;rounded=0;orthogonalLoop=1;jettySize=auto;html=1;exitX=1;exitY=0.5;exitDx=0;exitDy=0;entryX=0.5;entryY=1;entryDx=0;entryDy=0;fontSize=16;" edge="1" parent="1" source="8IZqgKLin0F-vWmYTHtC-14" target="8IZqgKLin0F-vWmYTHtC-4">
          <mxGeometry relative="1" as="geometry" />
        </mxCell>
        <mxCell id="8IZqgKLin0F-vWmYTHtC-14" value="电源&lt;br&gt;40" style="whiteSpace=wrap;html=1;aspect=fixed;labelBorderColor=none;fontSize=16;strokeWidth=1;" vertex="1" parent="1">
          <mxGeometry x="480" y="480" width="80" height="80" as="geometry" />
        </mxCell>
        <mxCell id="8IZqgKLin0F-vWmYTHtC-15" value="继电器&lt;br&gt;30" style="rounded=0;whiteSpace=wrap;html=1;labelBorderColor=none;fontSize=16;strokeWidth=1;" vertex="1" parent="1">
          <mxGeometry x="580" y="400" width="120" height="60" as="geometry" />
        </mxCell>
        <mxCell id="8IZqgKLin0F-vWmYTHtC-16" value="" style="endArrow=classic;html=1;rounded=0;fontSize=16;entryX=0;entryY=0;entryDx=0;entryDy=0;entryPerimeter=0;" edge="1" parent="1" target="8IZqgKLin0F-vWmYTHtC-1">
          <mxGeometry width="50" height="50" relative="1" as="geometry">
            <mxPoint x="460" y="180" as="sourcePoint" />
            <mxPoint x="650" y="290" as="targetPoint" />
          </mxGeometry>
        </mxCell>
        <mxCell id="8IZqgKLin0F-vWmYTHtC-17" value="音频输出设备&lt;br&gt;102" style="whiteSpace=wrap;html=1;aspect=fixed;labelBorderColor=none;fontSize=16;strokeWidth=1;" vertex="1" parent="1">
          <mxGeometry x="520" y="100" width="80" height="80" as="geometry" />
        </mxCell>
        <mxCell id="8IZqgKLin0F-vWmYTHtC-18" value="音频输入设备&lt;br&gt;101" style="whiteSpace=wrap;html=1;aspect=fixed;labelBorderColor=none;fontSize=16;strokeWidth=1;" vertex="1" parent="1">
          <mxGeometry x="420" y="100" width="80" height="80" as="geometry" />
        </mxCell>
        <mxCell id="8IZqgKLin0F-vWmYTHtC-19" value="" style="endArrow=none;html=1;rounded=0;fontSize=16;exitX=0.5;exitY=0;exitDx=0;exitDy=0;" edge="1" parent="1" source="8IZqgKLin0F-vWmYTHtC-15">
          <mxGeometry width="50" height="50" relative="1" as="geometry">
            <mxPoint x="530" y="410" as="sourcePoint" />
            <mxPoint x="580" y="360" as="targetPoint" />
          </mxGeometry>
        </mxCell>
        <mxCell id="8IZqgKLin0F-vWmYTHtC-20" value="" style="endArrow=none;html=1;rounded=0;fontSize=16;" edge="1" parent="1">
          <mxGeometry width="50" height="50" relative="1" as="geometry">
            <mxPoint x="560" y="519.5" as="sourcePoint" />
            <mxPoint x="640" y="520" as="targetPoint" />
          </mxGeometry>
        </mxCell>
        <mxCell id="8IZqgKLin0F-vWmYTHtC-21" value="" style="endArrow=classic;html=1;rounded=0;fontSize=16;entryX=0.5;entryY=1;entryDx=0;entryDy=0;" edge="1" parent="1" target="8IZqgKLin0F-vWmYTHtC-15">
          <mxGeometry width="50" height="50" relative="1" as="geometry">
            <mxPoint x="640" y="520" as="sourcePoint" />
            <mxPoint x="650" y="280" as="targetPoint" />
          </mxGeometry>
        </mxCell>
      </root>
    </mxGraphModel>
  </diagram>
</mxfile>
